<svg id="Component_33_6" data-name="Component 33 – 6" xmlns="http://www.w3.org/2000/svg" width="21.358" height="21.358" viewBox="0 0 21.358 21.358">
  <path id="Path_724" data-name="Path 724" d="M107.667,367.5a1.188,1.188,0,0,0-1.186,1.187v2.848a.714.714,0,0,1-.712.712H90.58a.714.714,0,0,1-.712-.712v-2.848a1.187,1.187,0,1,0-2.373,0v2.848a3.089,3.089,0,0,0,3.085,3.085h15.188a3.089,3.089,0,0,0,3.085-3.085v-2.848a1.188,1.188,0,0,0-1.187-1.187Z" transform="translate(-87.495 -353.261)" fill="#1c3144"/>
  <path id="Path_725" data-name="Path 725" d="M187.734,17.5a1.188,1.188,0,0,0-1.187,1.187V29.442L182.8,26.318a1.186,1.186,0,0,0-1.519,1.823l5.7,4.746a1.21,1.21,0,0,0,.19.11,1.01,1.01,0,0,0,1,.078,116.305,116.305,0,0,0,.323-.187l5.7-4.746a1.185,1.185,0,1,0-1.513-1.824l-3.749,3.124V18.687a1.188,1.188,0,0,0-1.187-1.187Z" transform="translate(-177.055 -17.5)" fill="#1c3144"/>
</svg>
